<svg width="47" height="47" viewBox="0 0 47 47" fill="none" xmlns="http://www.w3.org/2000/svg">
<rect width="47" height="47" fill="black"/>
<path d="M10.02 27V18.996H10.884V26.16H14.976V27H10.02ZM18.7013 27.18C17.7653 27.18 17.0693 26.904 16.6133 26.352C16.1653 25.792 15.9413 25.016 15.9413 24.024C15.9413 22.984 16.1773 22.204 16.6493 21.684C17.1293 21.164 17.8053 20.904 18.6773 20.904C19.3253 20.904 19.8533 21.036 20.2613 21.3C20.6693 21.556 20.9693 21.92 21.1613 22.392C21.3533 22.856 21.4492 23.4 21.4492 24.024C21.4492 25.008 21.2093 25.78 20.7293 26.34C20.2573 26.9 19.5813 27.18 18.7013 27.18ZM18.6893 26.388C19.1773 26.388 19.5573 26.284 19.8293 26.076C20.1013 25.86 20.2933 25.576 20.4053 25.224C20.5253 24.864 20.5853 24.464 20.5853 24.024C20.5853 23.552 20.5253 23.144 20.4053 22.8C20.2853 22.448 20.0853 22.176 19.8053 21.984C19.5333 21.792 19.1613 21.696 18.6893 21.696C18.2093 21.696 17.8333 21.8 17.5613 22.008C17.2893 22.216 17.0933 22.496 16.9733 22.848C16.8613 23.192 16.8053 23.584 16.8053 24.024C16.8053 24.728 16.9453 25.3 17.2253 25.74C17.5053 26.172 17.9933 26.388 18.6893 26.388ZM25.5093 27.18C24.8933 27.18 24.3813 27.06 23.9733 26.82C23.5733 26.572 23.2733 26.224 23.0733 25.776C22.8733 25.32 22.7733 24.784 22.7733 24.168C22.7733 23.48 22.8653 22.924 23.0493 22.5C23.2333 22.068 23.4693 21.74 23.7573 21.516C24.0533 21.284 24.3733 21.128 24.7173 21.048C25.0693 20.96 25.4093 20.916 25.7373 20.916C26.1133 20.916 26.4693 20.968 26.8053 21.072C27.1493 21.168 27.4293 21.324 27.6453 21.54C27.8693 21.756 27.9813 22.044 27.9813 22.404V27.252C27.9813 27.492 27.9453 27.736 27.8733 27.984C27.8013 28.232 27.6693 28.46 27.4773 28.668C27.2933 28.884 27.0293 29.056 26.6853 29.184C26.3493 29.312 25.9133 29.376 25.3773 29.376C25.0333 29.376 24.7173 29.344 24.4293 29.28C24.1413 29.216 23.8893 29.156 23.6733 29.1V28.284C23.8013 28.316 23.9453 28.352 24.1053 28.392C24.2733 28.44 24.4533 28.48 24.6453 28.512C24.8453 28.544 25.0573 28.56 25.2813 28.56C25.8253 28.56 26.2253 28.492 26.4813 28.356C26.7453 28.228 26.9173 28.064 26.9973 27.864C27.0773 27.672 27.1173 27.476 27.1173 27.276V26.4L27.4173 26.7C27.2653 26.78 27.0733 26.856 26.8413 26.928C26.6093 27 26.3733 27.06 26.1333 27.108C25.8933 27.156 25.6853 27.18 25.5093 27.18ZM25.5093 26.388C25.7653 26.388 26.0333 26.356 26.3133 26.292C26.6013 26.22 26.8693 26.112 27.1173 25.968V22.524C27.1173 22.3 27.0533 22.132 26.9253 22.02C26.8053 21.9 26.6413 21.82 26.4333 21.78C26.2253 21.732 26.0013 21.708 25.7613 21.708C25.1773 21.708 24.7373 21.824 24.4413 22.056C24.1453 22.28 23.9453 22.58 23.8413 22.956C23.7373 23.332 23.6853 23.736 23.6853 24.168C23.6853 24.824 23.8253 25.36 24.1053 25.776C24.3853 26.184 24.8533 26.388 25.5093 26.388ZM32.3653 27.18C31.4293 27.18 30.7333 26.904 30.2773 26.352C29.8293 25.792 29.6053 25.016 29.6053 24.024C29.6053 22.984 29.8413 22.204 30.3133 21.684C30.7933 21.164 31.4693 20.904 32.3413 20.904C32.9893 20.904 33.5173 21.036 33.9253 21.3C34.3333 21.556 34.6333 21.92 34.8253 22.392C35.0173 22.856 35.1133 23.4 35.1133 24.024C35.1133 25.008 34.8733 25.78 34.3933 26.34C33.9213 26.9 33.2453 27.18 32.3653 27.18ZM32.3533 26.388C32.8413 26.388 33.2213 26.284 33.4933 26.076C33.7653 25.86 33.9573 25.576 34.0693 25.224C34.1893 24.864 34.2493 24.464 34.2493 24.024C34.2493 23.552 34.1893 23.144 34.0693 22.8C33.9493 22.448 33.7493 22.176 33.4693 21.984C33.1973 21.792 32.8253 21.696 32.3533 21.696C31.8733 21.696 31.4973 21.8 31.2253 22.008C30.9533 22.216 30.7573 22.496 30.6373 22.848C30.5253 23.192 30.4693 23.584 30.4693 24.024C30.4693 24.728 30.6093 25.3 30.8893 25.74C31.1693 26.172 31.6573 26.388 32.3533 26.388Z" fill="white"/>
</svg>
